<?xml version="1.0"?>

<!DOCTYPE svg PUBLIC '-//W3C//DTD SVG 1.0//EN' 'http://www.w3.org/TR/2001/REC-SVG-20010904/DTD/svg10.dtd'>
<svg fill-opacity="1" xmlns:xlink="http://www.w3.org/1999/xlink" color-rendering="auto" color-interpolation="auto" text-rendering="auto" stroke="black" stroke-linecap="square" stroke-miterlimit="10" shape-rendering="auto" stroke-opacity="1" fill="black" stroke-dasharray="none" font-weight="normal" stroke-width="1" xmlns="http://www.w3.org/2000/svg" font-family="&apos;Dialog&apos;" font-style="normal" stroke-linejoin="miter" font-size="12" stroke-dashoffset="0" image-rendering="auto">
  <!--Unicode Character 'EARTH GLOBE EUROPE-AFRICA' (U+1F30D)-->
  <defs id="genericDefs" />
  <g>
    <g>
      <path d="M288 283.2188 Q288 342.8438 245.8125 385.0312 Q203.625 427.2188 144 427.2188 Q84.375 427.2188 42.1875 385.0312 Q0 342.8438 0 283.2188 Q0 223.5938 42.1875 181.4062 Q84.375 139.2188 144 139.2188 Q203.625 139.2188 245.8125 181.4062 Q288 223.5938 288 283.2188 ZM197.5781 153.2812 Q193.5 151.5938 190.2656 150.4688 Q190.8281 151.4531 192.2344 153.5625 L193.3594 153.5625 Q194.0625 153.5625 195.4688 153.4219 Q196.875 153.2812 197.5781 153.2812 ZM273.6562 240.75 Q273.375 237.6562 270.8438 232.875 Q270.1406 233.1562 270.1406 234 Q270.1406 233.0156 273.6562 240.75 ZM163.6875 154.2656 Q161.7188 153.9844 157.9219 153.2812 Q157.9219 154.4062 158.4844 154.9688 Q160.3125 154.9688 163.6875 154.2656 ZM209.6719 206.4375 L209.6719 204.4688 Q206.8594 200.9531 202.3594 193.3594 Q202.2188 193.2188 196.7344 189.1406 Q197.1562 187.5938 198.9844 186.6094 Q198.8438 185.7656 198.5625 184.0781 L195.3281 184.0781 Q192.9375 184.0781 190.125 188.2969 Q193.0781 192.2344 199.9688 198.1406 L199.125 198.9844 Q198.9844 200.5312 199.5469 203.625 Q199.8281 204.1875 202.9922 205.5938 Q206.1562 207 206.8594 207 Q207.4219 207 208.3359 206.7188 Q209.25 206.4375 209.6719 206.4375 ZM181.5469 194.2031 Q177.4688 192.0938 170.2969 186.6094 Q171.1406 185.4844 172.9688 183.2344 L170.5781 183.2344 Q169.1719 183.2344 166.3594 185.2031 Q167.2031 185.7656 169.0312 186.75 Q166.5 188.1562 164.8125 188.1562 Q163.8281 188.1562 161.5078 185.9062 Q159.1875 183.6562 158.4844 183.6562 Q157.6406 183.6562 154.6172 187.3828 Q151.5938 191.1094 151.5938 191.9531 Q151.5938 192.9375 153.8438 195.8906 Q152.4375 196.1719 149.7656 197.0156 L154.125 197.0156 Q154.8281 196.0312 159.4688 194.625 Q163.6875 193.5 165.375 193.5 Q167.3438 193.5 170.8594 194.8359 Q174.375 196.1719 176.3438 196.1719 Q180 196.1719 181.5469 194.2031 ZM146.25 154.2656 L143.1562 153.7031 Q142.4531 155.1094 139.6406 156.1641 Q136.8281 157.2188 136.4062 158.9062 L138.0938 160.5938 Q137.3906 161.1562 137.3906 161.7188 Q137.1094 161.5781 136.4062 161.5781 Q135.1406 161.5781 134.0859 163.4062 Q133.0312 165.2344 132.4688 165.6562 Q130.2188 166.2188 125.5781 167.2031 Q127.2656 168.8906 128.5312 168.8906 Q129.5156 168.8906 131.4141 168.1875 Q133.3125 167.4844 134.2969 167.4844 Q134.7188 167.4844 135.2812 167.9766 Q135.8438 168.4688 136.2656 168.4688 Q137.25 168.4688 139.2188 167.0625 Q142.4531 160.4531 142.4531 160.875 Q142.4531 160.4531 141.3281 159.1875 Q141.3281 159.0469 141.75 156.6562 Q144.1406 154.8281 146.25 154.2656 ZM171.2812 212.4844 Q171.2812 211.7812 170.5781 211.2188 Q170.8594 210.6562 170.8594 209.9531 Q170.8594 206.4375 168.6094 206.4375 Q167.7656 206.4375 166.5703 207.3516 Q165.375 208.2656 164.5312 208.2656 Q163.5469 208.2656 162.0703 207.3516 Q160.5938 206.4375 159.6094 206.4375 Q159.0469 206.4375 158.1328 207.1406 Q157.2188 207.8438 156.6562 207.8438 Q155.25 207.8438 147.0938 202.3594 L147.0938 199.5469 Q147.7969 198.2812 149.7656 197.2969 Q146.5312 196.1719 145.125 196.1719 Q143.1562 196.1719 142.4531 198 Q141.6094 197.7188 139.9219 197.4375 Q141.6094 200.8125 143.4375 202.2188 Q143.0156 203.3438 142.1719 203.3438 Q141.75 203.3438 140.7656 202.7812 Q140.625 206.4375 138.7969 206.4375 Q137.8125 206.4375 135.9844 202.7812 Q137.8125 203.0625 139.9219 203.0625 Q139.0781 202.5 135.1406 201.375 Q134.7188 200.3906 133.1719 198.1406 Q132.6094 197.2969 132.6094 193.7812 Q129.6562 192.2344 124.0312 188.4375 Q123.1875 187.1719 121.2188 184.9219 Q119.25 185.0625 119.25 187.0312 Q119.25 189.9844 130.0781 196.7344 L129.375 198 L126.7031 196.5938 L126.1406 197.4375 Q126.4219 198.2812 126.8438 200.1094 Q124.875 201.9375 122.3438 202.6406 Q121.0781 205.5938 120.375 205.5938 Q119.1094 205.5938 115.3125 202.6406 Q116.1562 201.5156 117.1406 201.5156 Q117.4219 201.5156 117.9844 201.7266 Q118.5469 201.9375 118.8281 201.9375 Q118.6875 201.9375 122.625 201.5156 L124.3125 199.9688 Q124.0312 198.2812 121.5 196.4531 Q119.5312 195.1875 117.5625 193.7812 Q116.2969 192.6562 113.7656 188.8594 Q112.6406 187.1719 111.6562 187.1719 Q110.6719 187.1719 108.4219 188.5781 Q106.1719 189.9844 105.1875 189.9844 Q104.4844 189.9844 103.2891 189.4922 Q102.0938 189 101.3906 189 Q99.9844 189 99 192.0938 Q95.2031 193.3594 90.1406 197.1562 Q90 197.8594 89.6484 199.0547 Q89.2969 200.25 86.3438 202.2188 Q83.3906 204.1875 82.4062 204.1875 Q81.9844 204.1875 81.1406 203.9766 Q80.2969 203.7656 79.875 203.7656 Q78.0469 203.7656 75.9375 205.875 Q78.3281 207.8438 81.2812 207.8438 Q82.2656 207.8438 85.7812 206.0156 Q89.2969 204.1875 90.2812 204.1875 Q91.6875 204.1875 94.5 204.4688 Q97.3125 204.75 98.7188 204.75 Q100.4062 204.75 103.6406 204.0469 Q106.875 203.3438 108.5625 203.3438 Q109.125 203.3438 111.2344 204.75 Q110.9531 205.7344 109.9688 206.7188 Q110.8125 207.5625 110.8125 208.9688 Q109.6875 209.9531 107.7188 212.0625 L109.2656 213.0469 Q109.9688 214.4531 113.4844 215.0156 Q116.5781 215.4375 116.5781 216.4219 L117.1406 216.8438 L117.5625 216.4219 Q117.7031 216.2812 117.9844 216.2812 Q117.9844 216.2812 121.9922 219.6562 Q126 223.0312 128.5312 223.0312 Q131.3438 223.0312 131.4844 219.4453 Q131.625 215.8594 136.5469 215.8594 Q137.8125 215.8594 142.875 219.9375 L143.1562 218.6719 Q148.9219 221.2031 147.7969 221.2031 Q148.2188 221.2031 148.5703 220.7812 Q148.9219 220.3594 149.4844 220.3594 Q150.4688 220.3594 152.0859 221.0625 Q153.7031 221.7656 154.6875 221.7656 Q155.9531 221.7656 158.4844 220.8516 Q161.0156 219.9375 162.2812 219.9375 Q163.125 219.9375 163.4062 220.9922 Q163.6875 222.0469 164.1094 223.1719 L164.1094 221.7656 Q165.7969 221.3438 168.8906 219.9375 Q171.2812 211.9219 171.2812 212.4844 ZM284.4844 283.2188 Q284.4844 276.8906 283.9219 270.5625 L283.7812 271.8281 L282.9375 271.8281 L283.5 268.3125 L283.6406 268.3125 L283.3594 265.3594 L282.9375 267.3281 Q281.6719 255.5156 274.3594 240.8906 Q272.3906 241.7344 272.3906 243.8438 Q272.3906 244.4062 272.6016 245.5312 Q272.8125 246.6562 272.8125 247.2188 Q272.8125 249.6094 271.4766 254.1797 Q270.1406 258.75 270.1406 261.1406 Q270.1406 263.3906 271.0547 267.8203 Q271.9688 272.25 271.9688 274.5 Q271.9688 275.2031 269.5781 281.6719 Q267.8906 280.125 263.8125 266.7656 Q262.5469 264.5156 260.4375 260.0156 Q258.8906 255.9375 256.9219 246.2344 Q255.9375 246.375 255.375 248.0625 L253.8281 248.0625 L250.5938 244.8281 Q250.875 243.8438 251.8594 243 Q249.4688 242.5781 246.375 239.2734 Q243.2812 235.9688 243.2812 235.9688 Q242.1562 235.9688 240.0469 236.6719 Q237.9375 237.375 236.8125 237.375 Q237.375 237.375 226.4062 235.9688 Q225.9844 235.4062 226.4062 234.1406 Q224.1562 232.4531 223.4531 232.4531 Q222.75 232.4531 221.7656 233.3672 Q220.7812 234.2812 220.0781 234.2812 Q217.2656 234.2812 215.7188 231.0469 L215.8594 230.9062 L215.1562 230.625 L214.7344 231.0469 L214.1719 231.0469 Q212.7656 231.0469 210.375 228.375 Q208.8281 226.5469 207.1406 224.5781 L205.4531 223.875 L203.4844 225.9844 Q206.7188 229.2188 211.7812 236.5312 L213.1875 235.6875 Q214.0312 238.3594 214.3125 240.1875 Q215.0156 241.0312 216.8438 241.0312 Q220.0781 241.0312 221.1328 239.1328 Q222.1875 237.2344 223.3125 235.125 Q223.4531 235.2656 225 237.9375 Q225.7031 239.2031 229.9219 241.5938 Q233.4375 243.4219 233.4375 246.0938 Q233.4375 246.9375 232.4531 248.9062 Q231.4688 250.875 231.3281 251.5781 Q231.1875 252.9844 231.0469 255.6562 Q229.0781 257.625 225.7031 261.8438 Q219.2344 261.9844 219.9375 266.3438 Q217.2656 268.0312 211.9219 271.2656 Q207.5625 272.9531 198.7031 276.3281 Q196.875 274.0781 195.5391 268.5234 Q194.2031 262.9688 191.6719 260.0156 Q189.8438 257.9062 189.5625 254.8125 Q185.0625 252.9844 182.6719 245.6719 Q182.3906 244.6875 177.6094 239.4844 L178.4531 237.6562 L177.75 237.375 L177.1875 237.375 L176.7656 237.7969 Q176.4844 236.5312 175.6406 234.1406 Q170.0156 230.2031 170.8594 230.2031 Q169.5938 230.2031 168.75 231.0469 Q166.7812 229.6406 165.375 226.5469 Q168.0469 233.0156 173.6719 241.7344 Q175.6406 244.4062 178.7344 250.0312 Q178.875 253.125 181.4062 258.75 Q183.0938 259.4531 183.9375 261.9844 Q185.2031 265.5 185.625 266.0625 Q186.0469 266.625 192.6562 271.9688 Q197.4375 275.7656 196.875 279.1406 Q197.8594 280.2656 199.8281 282.6562 Q207.2812 282.2344 218.1094 277.1719 Q218.6719 277.7344 218.6719 279.4219 Q218.6719 281.1094 213.0469 295.0312 Q212.4844 297.2812 210.375 301.3594 Q208.2656 304.0312 196.1719 315.4219 Q187.3125 323.7188 184.3594 331.3125 L184.3594 331.7344 Q184.3594 332.7188 184.7812 333.2812 L183.7969 333.9844 L184.9219 335.5312 Q184.9219 335.5312 184.9219 340.3125 Q184.9219 342.4219 185.2031 343.6875 Q186.8906 345.7969 186.8906 351.7031 Q186.8906 360.2812 181.4062 362.6719 Q178.1719 364.0781 168.1875 370.6875 Q168.1875 371.5312 168.75 373.2188 Q169.3125 374.9062 169.3125 375.75 Q169.3125 376.0312 168.75 379.6875 Q166.0781 380.9531 161.0156 384.0469 Q160.7344 387.2812 160.0312 388.125 Q158.3438 389.3906 156.7969 390.6562 Q149.7656 396.8438 143.7188 398.3906 Q139.5 399.5156 128.6719 399.5156 Q122.7656 399.5156 123.6094 394.3125 Q119.9531 390.9375 114.0469 383.2031 Q113.4844 380.25 111.5156 374.7656 Q111.2344 374.3438 106.1719 367.0312 Q102.7969 362.25 102.7969 358.3125 Q102.7969 355.6406 105.2578 351.7734 Q107.7188 347.9062 107.7188 346.3594 Q107.7188 345.375 106.5938 343.6172 Q105.4688 341.8594 105.4688 340.875 Q105.4688 340.3125 106.0312 338.7656 Q104.7656 335.1094 101.5312 328.2188 Q101.25 327.7969 96.3281 322.3125 Q92.9531 318.375 92.9531 315.7031 Q92.9531 313.875 94.2891 310.2891 Q95.625 306.7031 95.625 304.7344 Q95.625 298.6875 90.8438 298.6875 Q90.1406 298.6875 88.9453 299.3906 Q87.75 300.0938 87.0469 300.0938 Q85.5 300.0938 83.6719 297.7031 Q82.6875 295.4531 81.8438 293.2031 Q81.1406 291.9375 75.6562 291.9375 Q73.125 291.9375 69.1172 293.5547 Q65.1094 295.1719 63.8438 295.1719 Q63 295.1719 60.6797 294.0469 Q58.3594 292.9219 56.8125 292.9219 Q55.8281 292.9219 54.0703 293.5547 Q52.3125 294.1875 51.3281 294.1875 Q49.5 294.1875 45.8438 289.0547 Q42.1875 283.9219 41.2031 283.3594 Q40.9219 281.3906 39.9375 277.4531 Q39.7969 277.0312 38.3906 274.7812 Q37.4062 273.0938 37.5469 271.8281 L37.6875 270.8438 Q35.1562 268.875 35.1562 265.3594 Q35.1562 258.6094 40.3594 251.4375 Q40.5 248.625 40.2188 242.8594 Q41.0625 241.0312 42.8906 237.5156 Q44.5781 236.1094 47.5312 233.0156 Q49.0781 230.3438 53.1562 225.5625 Q56.25 224.5781 61.875 219.0938 Q62.5781 217.4062 64.4062 214.1719 Q68.0625 211.9219 74.9531 205.3125 L74.9531 203.625 Q74.25 202.9219 71.0156 202.3594 Q71.1562 200.5312 72.4219 197.1562 Q73.2656 196.4531 74.8125 194.9062 Q76.0781 192.6562 78.6094 188.2969 Q79.875 187.7344 81 187.7344 Q82.4062 187.7344 85.2891 188.1562 Q88.1719 188.5781 89.5781 188.5781 Q90.8438 188.5781 92.7422 186.5391 Q94.6406 184.5 94.6406 183.2344 Q94.6406 180.4219 91.5469 179.0156 Q93.0938 177.3281 94.6406 177.3281 Q94.9219 177.3281 95.3438 177.6094 Q95.7656 177.8906 96.0469 177.8906 Q96.6094 177.8906 97.1719 176.9766 Q97.7344 176.0625 98.2969 176.0625 Q98.5781 176.0625 99.0703 176.2734 Q99.5625 176.4844 99.8438 176.4844 Q102.0938 176.4844 104.0625 174.5156 Q103.5 174.2344 102.7969 174.2344 Q104.3438 174.2344 92.9531 175.2188 Q93.7969 174.6562 96.0469 173.3906 L95.625 171.7031 Q97.4531 170.4375 101.3906 168.4688 Q101.1094 167.4844 99.8438 167.0625 Q99.1406 167.3438 98.8594 168.3281 Q97.5938 169.4531 95.0625 171.4219 Q94.3594 171.8438 89.5781 172.9688 L88.4531 172.2656 Q88.7344 172.125 92.3906 168.75 Q94.6406 166.6406 97.3125 166.6406 Q97.5938 166.6406 98.1562 166.8516 Q98.7188 167.0625 99 167.0625 Q100.4062 167.0625 100.9688 164.6016 Q101.5312 162.1406 103.3594 162.1406 L103.9219 162.5625 L104.7656 161.7188 L106.5938 161.7188 L107.7188 163.2656 Q105.0469 164.1094 105.0469 166.2188 Q105.0469 165.9375 105.4688 169.4531 Q105.8906 170.1562 106.7344 170.2969 Q106.7344 170.7188 105.0469 173.1094 Q105.1875 173.8125 105.8906 173.8125 Q106.0312 173.8125 110.8125 171.5625 Q115.5938 169.3125 118.125 169.1719 Q118.5469 167.625 119.9531 164.9531 Q121.5 164.3906 124.3125 163.125 Q124.4531 163.5469 124.1719 165.375 L125.8594 166.2188 Q126.9844 166.0781 126.9844 164.8125 Q126.9844 163.5469 125.2969 161.2969 Q122.9062 162.5625 120.9375 162.5625 L118.9688 162.5625 Q118.4062 161.4375 118.4062 161.0156 Q118.4062 157.9219 125.5781 155.8125 Q133.7344 153.2812 135.1406 150.75 Q141.6094 148.6406 146.6719 148.6406 Q150.0469 148.6406 156.3047 150.8906 Q162.5625 153.1406 164.9531 153.1406 Q166.2188 153.1406 166.7812 152.5781 L165.5156 151.4531 Q167.9062 152.7188 169.3125 152.7188 Q168.4688 152.7188 172.2656 151.5938 Q171.8438 151.7344 174.7969 151.7344 Q175.7812 151.7344 176.625 151.5938 Q175.6406 150.6094 171.5625 149.7656 Q168.0469 149.0625 167.2031 147.0938 Q167.7656 146.1094 169.5938 145.125 Q156.6562 142.7344 144 142.7344 Q137.6719 142.7344 131.3438 143.2969 L132.75 144 Q127.125 144.5625 99 152.0156 Q90.2812 154.2656 78.6094 159.75 L78.3281 159.0469 Q64.125 166.6406 52.0312 177.0469 L52.1719 178.3125 L50.9062 178.875 L50.4844 178.3125 Q28.125 198.2812 15.8203 225.7734 Q3.5156 253.2656 3.5156 283.2188 Q3.5156 291.5156 4.3594 298.9688 Q4.7812 297.1406 5.4844 295.5938 Q10.2656 308.25 10.4062 309.0938 Q11.9531 314.4375 11.9531 323.5781 Q11.9531 326.1094 11.5312 326.9531 Q11.1094 325.4062 9.4219 323.5781 Q22.7812 368.0156 60.1875 395.8594 Q97.5938 423.7031 144 423.7031 Q202.2188 423.7031 243.3516 382.5703 Q284.4844 341.4375 284.4844 283.2188 ZM159.6094 321.6094 Q159.6094 321.1875 159.3281 320.625 Q159.0469 320.0625 159.0469 319.7812 Q154.6875 319.9219 154.6875 323.1562 Q154.6875 324.1406 154.9688 325.9688 Q155.25 327.7969 155.25 328.6406 L156.7969 328.6406 Q157.5 327.6562 159.0469 325.8281 Q159.0469 325.6875 158.9062 325.2656 Q158.9062 324.7031 159.2578 323.4375 Q159.6094 322.1719 159.6094 321.6094 ZM146.3906 144.4219 Q145.6875 144.4219 144.2812 144.9844 Q142.875 145.5469 142.1719 145.5469 Q141.4688 145.5469 140.3438 144.4219 L146.3906 144.4219 ZM274.6406 285.6094 Q274.2188 285.6094 273.5156 286.5938 Q273.0938 286.1719 271.9688 283.7812 Q272.1094 281.25 272.8125 276.3281 Q274.6406 281.6719 274.6406 281.3906 L274.6406 285.6094 ZM167.625 209.6719 Q167.2031 210.5156 163.6875 212.2031 Q163.6875 211.9219 162.7031 211.2188 Q162.9844 210.9375 166.0781 209.6719 L167.625 209.6719 ZM225.8438 275.7656 L224.1562 275.7656 L225.1406 274.5 Q225.5625 274.7812 225.8438 275.7656 ZM107.1562 152.8594 Q104.625 155.8125 100.4062 155.8125 L98.2969 155.8125 L98.1562 154.8281 Q99.2812 152.8594 100.5469 152.8594 L107.1562 152.8594 ZM147.9375 210.2344 Q147.375 210.9375 145.6875 210.9375 Q143.5781 210.9375 141.3281 209.25 L144.2812 209.25 Q144.8438 209.25 145.8984 209.6016 Q146.9531 209.9531 147.5156 209.9531 L147.9375 210.2344 ZM193.3594 263.5312 L192.7969 263.9531 L192.2344 263.25 L192.6562 262.8281 L193.3594 263.5312 ZM111.6562 192.375 Q111.2344 192.9375 110.6719 196.7344 Q110.25 199.2656 107.8594 199.8281 Q107.2969 199.4062 107.2969 198.4219 Q107.2969 199.4062 107.8594 195.4688 Q108.5625 194.625 109.6875 194.0625 Q109.6875 191.1094 111.0938 190.8281 L111.6562 192.375 ZM96.6094 197.5781 L96.3281 198.4219 Q95.2031 198.4219 95.2031 197.1562 Q95.9062 197.0156 96.3281 196.5938 L96.6094 197.5781 ZM211.5 352.8281 Q211.5 355.7812 206.1562 365.9062 Q201.0938 375.3281 198.4922 378.2109 Q195.8906 381.0938 192.7969 381.0938 Q189.5625 381.0938 189.5625 375.0469 Q189.5625 374.0625 191.6016 371.5312 Q193.6406 369 193.9219 367.875 Q193.9219 367.875 193.9219 364.5 Q193.9219 360.8438 196.6641 359.6484 Q199.4062 358.4531 202.2188 357.3281 Q203.3438 356.3438 205.5938 354.375 L205.875 352.9688 Q207.4219 351.2812 210.5156 348.0469 Q211.5 351 211.5 352.8281 Z" stroke="none" />
    </g>
  </g>
</svg>
